<?xml version="1.0" encoding="UTF-8" standalone="no"?>
<!-- Created with Inkscape (http://www.inkscape.org/) -->

<svg
   version="1.1"
   id="svg2"
   width="257.33334\\"
   height="257.33334"
   viewBox="0 0 257.33334 257.33334"
   sodipodi:docname="University_of_Toronto.eps"
   xmlns:inkscape="http://www.inkscape.org/namespaces/inkscape"
   xmlns:sodipodi="http://sodipodi.sourceforge.net/DTD/sodipodi-0.dtd"
   xmlns="http://www.w3.org/2000/svg"
   xmlns:svg="http://www.w3.org/2000/svg">
  <defs
     id="defs6" />
  <sodipodi:namedview
     id="namedview4"
     pagecolor="#ffffff"
     bordercolor="#000000"
     borderopacity="0.25"
     inkscape:showpageshadow="2"
     inkscape:pageopacity="0.0"
     inkscape:pagecheckerboard="0"
     inkscape:deskcolor="#d1d1d1" />
  <g
     id="g8"
     inkscape:groupmode="layer"
     inkscape:label="ink_ext_XXXXXX"
     transform="matrix(1.3333333,0,0,-1.3333333,0,257.33333)">
    <g
       id="g10"
       transform="scale(0.1)">
      <path
         d="M 0,1927.56 H 1927.56 V 0 H 0 v 1927.56"
         style="fill:#ffffff;fill-opacity:1;fill-rule:evenodd;stroke:none"
         id="path12" />
      <path
         d="M 260.395,1736.63 H 1667.16 v -357 h -244.8 v 90.94 h -305.15 v -172.55 c 0,0 -12.75,22.1 -18.71,28.05 v 162.35 h 341.71 v -90.94 h 209.1 v 321.3 H 279.938 v -320.46 h 213.355 v 90.96 H 830.75 v -84.15 c 0,0 -15.301,18.69 -17.852,18.69 v 45.9 H 511.992 v -89.25 l -251.601,0.85 0.004,355.31"
         style="fill:#254c7d;fill-opacity:1;fill-rule:nonzero;stroke:none"
         id="path14" />
      <path
         d="M 297.801,1700.07 H 1631.46 v -283.91 h -173.4 v 91.8 h -377.41 v -193.8 c 0,0 -50.14,-48.45 -57.79,-54.4 -7.65,-5.94 -44.208,-50.15 -65.45,-89.25 0,0 -5.949,61.2 -5.949,96.06 0,34.84 -14.453,59.49 -24.652,97.75 0,0 -53.551,-26.35 -53.551,-28.05 0,0 -18.699,35.69 -24.649,40.8 v 130.89 H 476.297 v -91.8 H 297.793 l 0.008,283.91"
         style="fill:#254c7d;fill-opacity:1;fill-rule:nonzero;stroke:none"
         id="path16" />
      <path
         d="m 1118.07,540.648 v -181.05 h 134.29 V 85.0391 H 675.207 V 360.445 h 136.852 v 144.504 c 0,0 8.5,-51 11.046,-51 2.555,0 5.95,-4.254 8.5,-4.254 v -110.5 H 694.754 V 104.594 h 538.916 v 236.304 h -135.16 v 198.907 l 19.56,0.843"
         style="fill:#254c7d;fill-opacity:1;fill-rule:nonzero;stroke:none"
         id="path18" />
      <path
         d="M 1080.65,541.504 V 323.051 H 1215.8 V 123.297 H 712.605 v 199.754 h 136.004 v 123.246 h 43.352 l 115.599,-54.395 c 0,0 18.71,62.047 18.71,68.848 0,6.805 11.03,78.207 11.03,78.207 l 43.35,2.547"
         style="fill:#254c7d;fill-opacity:1;fill-rule:nonzero;stroke:none"
         id="path20" />
      <path
         d="m 683.703,859.406 c 5.098,-7.652 113.051,-189.551 187,-249.047 73.949,-59.507 106.254,-140.254 106.254,-140.254 10.203,56.946 -95.203,164.051 -106.254,168.301 -11.047,4.246 -69.699,86.703 -69.699,86.703 h 14.449 c 64.602,-29.75 210.817,-28.906 210.817,-28.906 44.19,0 291.54,34.856 291.54,34.856 -5.1,5.097 -65.45,4.25 -65.45,4.25 -98.59,0 -133.45,-19.551 -243.11,-19.551 -109.637,0 -215.895,34.851 -215.895,47.601 0,12.754 107.954,123.254 107.954,123.254 0,0 63.746,-28.902 121.551,-28.902 57.79,0 71.4,19.547 71.4,19.547 -3.83,-3.828 -37.4,-4.242 -37.4,-4.242 -92.653,0 -126.653,31.441 -126.653,31.441 55.258,56.953 106.253,93.5 106.253,93.5 0,0 62.04,-32.297 123.25,-32.297 61.2,0 117.3,28.899 117.3,28.899 -53.55,-16.149 -89.25,-14.442 -130.06,-14.442 -40.79,0 -85.84,39.943 -85.84,39.943 l 88.39,64.6 c 92.66,-46.75 113.07,-30.6 113.07,-30.6 -59.51,11.06 -96.91,46.76 -96.91,46.76 l 80.75,68.84 c 52.71,-22.95 82.45,-4.25 82.45,-4.25 -39.94,-6.8 -65.44,15.3 -65.44,15.3 62.89,59.5 72.24,101.16 72.24,101.16 0,0 -69.69,-89.26 -84.15,-89.26 -14.45,0 -11.04,67.15 -11.04,67.15 0,0 -12.75,-27.2 -12.75,-44.2 0,-16.99 4.24,-38.25 4.24,-38.25 l -78.19,-62.05 c -11.06,-7.65 -15.3,82.46 -15.3,82.46 -16.16,-38.26 -3.41,-98.61 -3.41,-98.61 l -84.15,-61.2 c 0,0 -11.89,17.85 -11.89,56.95 0,39.1 34.84,129.2 34.84,129.2 -30.6,-32.3 -49.31,-113.9 -49.31,-113.9 -3.82,-3.82 -1.69,-91.8 -1.69,-91.8 -22.954,-24.649 -108.805,-95.2 -108.805,-95.2 -15.301,0 -11.047,69.695 -11.047,69.695 v 81.605 c -9.348,-23.8 -18.703,-62.9 -22.106,-97.749 -3.394,-34.848 4.254,-70.547 4.254,-70.547 L 775.504,796.512 c -11.047,-9.352 -25.5,174.25 -13.602,219.288 11.899,45.06 27.2,221.86 30.598,225.27 3.406,3.39 4.684,45.47 0.855,49.29 -3.824,3.83 -2.55,45.91 -2.55,45.91 -11.047,0 -8.5,-68.86 -8.5,-68.86 0,-17.84 -40.805,-245.65 -40.805,-245.65 V 810.957 c -3.402,0 -59.5,73.953 -96.898,124.106 -37.403,50.14 -94.352,59.496 -102.856,59.496 -8.496,0 -14.449,-4.254 -14.449,-4.254 93.504,-22.09 151.305,-123.25 156.406,-130.899 z M 510.297,629.055 c 158.953,21.25 201.457,101.156 201.457,108.804 0,7.653 -46.75,20.403 -60.348,24.645 -13.605,4.254 -67.156,8.504 -67.156,8.504 0,17.855 3.402,47.597 3.402,51.851 0,4.254 -28.902,16.149 -31.453,16.149 -2.551,0 -27.199,50.996 -38.25,75.652 -11.051,24.656 -65.449,89.25 -65.449,89.25 12.75,0 92.656,35.7 103.699,35.7 11.051,0 61.203,-10.2 61.203,-10.2 6.797,0 19.125,155.98 10.2,164.91 -8.922,8.93 -3.395,41.64 -3.395,41.64 6.797,-6.79 52.699,-21.24 52.699,-21.24 -5.105,5.1 -14.449,46.74 -14.449,46.74 0,51.86 12.75,73.11 12.75,73.11 10.625,-10.62 64.598,-14.45 64.598,-14.45 4.246,0 52.703,90.95 52.703,90.95 12.75,0 73.953,-103.7 73.953,-103.7 5.945,0 45.047,24.65 45.047,24.65 3.402,-3.39 17.851,-56.1 17.851,-73.1 0,-17 8.504,-154.7 13.602,-149.6 0.258,0.26 0.648,0.76 1.176,1.47 9.742,13.32 63.043,101.9 71.933,111.58 9.34,10.2 73.95,72.25 73.95,72.25 3.38,0 32.29,-55.25 32.29,-55.25 9.34,11.05 54.41,49.3 62.06,55.25 7.65,5.95 55.24,56.95 55.24,56.95 9.35,-42.51 20.41,-55.25 20.41,-55.25 0,0 18.7,15.3 52.69,15.3 34,0 72.25,11.05 72.25,11.05 -8.5,-34 -25.49,-74.8 -25.49,-85.85 0,-11.05 -22.95,-39.95 -22.95,-39.95 4.24,-4.26 50.14,-17.01 50.14,-17.01 -9.34,-1.69 -51.84,-64.59 -58.65,-88.39 -6.8,-23.81 -27.19,-31.46 -27.19,-43.35 0,-11.92 51,-19.55 51,-19.55 -20.41,-59.507 -141.95,-117.308 -149.6,-117.308 -7.65,0 -62.06,-42.504 -62.06,-51 0,-8.508 133.45,-34.852 140.25,-34.852 6.8,0 51.85,-10.203 51.85,-16.148 0,-5.957 -14.45,-21.254 -14.45,-28.907 0,-7.652 38.25,-6.792 38.25,-6.792 28.9,-9.356 68.85,-43.352 68.85,-43.352 -10.2,-10.203 -47.18,-24.227 -55.25,-32.305 -8.07,-8.078 -51,-23.801 -51,-23.801 3.4,0 30.61,-32.3 30.61,-32.3 -19.56,-6.801 -39.96,-31.446 -74.81,-31.446 -34.85,0 -37.4,-5.957 -37.4,-5.957 15.3,-25.504 28.05,-26.351 28.05,-35.703 0,-9.351 -30.6,-10.199 -64.6,-10.199 -33.99,0 -77.35,9.355 -110.5,9.355 -33.15,0 -73.11,-7.648 -73.11,-7.648 C 1005.87,448 990.555,425.051 990.555,425.051 l -93.5,45.902 c -68.856,0 -56.95,5.102 -56.95,5.102 -7.652,90.093 -48.453,90.093 -48.453,90.093 H 751.703 C 762.75,704.699 741.5,709.813 741.5,709.813 680.301,616.305 543.449,579.758 521.348,577.211 c -22.098,-2.551 -71.407,-1.707 -71.407,-1.707 0,54.398 9.356,68.851 9.356,68.851 16.148,0 51,-15.3 51,-15.3"
         style="fill:#d32644;fill-opacity:1;fill-rule:nonzero;stroke:none"
         id="path22" />
      <path
         d="m 261.91,1841.3 h 15.938 v -36.23 c 0,-5.76 0.195,-9.49 0.582,-11.18 0.679,-2.75 2.289,-4.94 4.824,-6.59 2.543,-1.67 6.019,-2.5 10.426,-2.5 4.476,0 7.851,0.78 10.125,2.36 2.273,1.56 3.64,3.48 4.105,5.77 0.461,2.27 0.699,6.06 0.699,11.36 v 37.01 h 15.934 v -35.13 c 0,-8.02 -0.434,-13.69 -1.289,-17.01 -0.856,-3.32 -2.438,-6.11 -4.742,-8.4 -2.301,-2.27 -5.383,-4.08 -9.239,-5.44 -3.855,-1.36 -8.894,-2.03 -15.109,-2.03 -7.504,0 -13.195,0.74 -17.07,2.21 -3.875,1.47 -6.934,3.39 -9.188,5.75 -2.25,2.36 -3.73,4.83 -4.441,7.41 -1.039,3.84 -1.555,9.49 -1.555,16.97 v 35.67"
         style="fill:#254c7d;fill-opacity:1;fill-rule:nonzero;stroke:none"
         id="path24" />
      <path
         d="m 341.156,1774.5 v 66.8 h 15.367 l 32.602,-44.98 v 44.98 h 14.664 v -66.8 h -15.855 l -32.114,44.05 v -44.05 h -14.664"
         style="fill:#254c7d;fill-opacity:1;fill-rule:nonzero;stroke:none"
         id="path26" />
      <path
         d="m 419.926,1774.5 v 66.8 h 15.933 v -66.8 h -15.933"
         style="fill:#254c7d;fill-opacity:1;fill-rule:nonzero;stroke:none"
         id="path28" />
      <path
         d="m 470.906,1774.5 -27.984,66.8 h 17.211 l 19.844,-49.45 19.175,49.45 h 16.922 l -27.918,-66.8 h -17.25"
         style="fill:#254c7d;fill-opacity:1;fill-rule:nonzero;stroke:none"
         id="path30" />
      <path
         d="m 524.082,1774.5 v 66.8 h 58.492 v -11.25 H 540.02 v -14.76 h 39.527 v -11.25 H 540.02 v -18.29 h 43.988 v -11.25 h -59.926"
         style="fill:#254c7d;fill-opacity:1;fill-rule:nonzero;stroke:none"
         id="path32" />
      <path
         d="m 613.215,1813.11 h 11.676 c 7.562,0 12.289,0.28 14.172,0.82 1.882,0.56 3.363,1.49 4.425,2.83 1.067,1.33 1.598,3.01 1.598,5 0,2.25 -0.695,4.06 -2.102,5.44 -1.406,1.39 -3.39,2.25 -5.941,2.62 -1.281,0.15 -5.125,0.23 -11.52,0.23 h -12.308 v -16.94 z m -15.942,-38.61 v 66.8 h 33.379 c 8.391,0 14.489,-0.61 18.293,-1.81 3.801,-1.19 6.84,-3.33 9.125,-6.39 2.289,-3.06 3.434,-6.57 3.434,-10.51 0,-5.02 -1.723,-9.14 -5.16,-12.41 -3.434,-3.26 -8.574,-5.32 -15.414,-6.17 3.398,-1.69 6.207,-3.56 8.418,-5.6 2.215,-2.04 5.199,-5.66 8.953,-10.86 l 9.578,-13.05 h -18.762 l -11.484,14.62 c -4.086,5.17 -6.891,8.43 -8.391,9.77 -1.508,1.35 -3.105,2.27 -4.785,2.77 -1.691,0.5 -4.359,0.75 -8.019,0.75 h -3.223 v -27.91 h -15.942"
         style="fill:#254c7d;fill-opacity:1;fill-rule:nonzero;stroke:none"
         id="path34" />
      <path
         d="m 672.375,1796.46 15.461,1.22 c 0.934,-4.44 2.82,-7.69 5.668,-9.77 2.848,-2.07 6.691,-3.11 11.527,-3.11 5.125,0 8.985,0.92 11.586,2.77 2.594,1.84 3.895,4.01 3.895,6.48 0,1.58 -0.551,2.93 -1.637,4.04 -1.086,1.12 -2.988,2.09 -5.699,2.91 -1.852,0.54 -6.078,1.52 -12.68,2.91 -8.484,1.8 -14.445,4 -17.871,6.61 -4.812,3.67 -7.219,8.13 -7.219,13.4 0,3.4 1.133,6.57 3.407,9.52 2.269,2.96 5.535,5.21 9.804,6.76 4.27,1.54 9.43,2.32 15.465,2.32 9.867,0 17.297,-1.83 22.277,-5.5 4.989,-3.68 7.606,-8.57 7.856,-14.69 l -15.938,-0.55 c -0.675,3.43 -2.132,5.88 -4.363,7.38 -2.226,1.5 -5.578,2.24 -10.039,2.24 -4.602,0 -8.207,-0.79 -10.812,-2.4 -1.68,-1.04 -2.516,-2.41 -2.516,-4.13 0,-1.57 0.785,-2.93 2.363,-4.05 1.996,-1.42 6.86,-2.91 14.582,-4.46 7.719,-1.55 13.434,-3.16 17.133,-4.82 3.699,-1.66 6.59,-3.93 8.684,-6.81 2.093,-2.89 3.136,-6.46 3.136,-10.7 0,-3.85 -1.254,-7.45 -3.761,-10.81 -2.512,-3.36 -6.059,-5.84 -10.645,-7.48 -4.586,-1.63 -10.301,-2.45 -17.141,-2.45 -9.96,0 -17.613,1.97 -22.953,5.92 -5.34,3.94 -8.531,9.69 -9.57,17.25"
         style="fill:#254c7d;fill-opacity:1;fill-rule:nonzero;stroke:none"
         id="path36" />
      <path
         d="m 749.238,1774.5 v 66.8 h 15.938 v -66.8 h -15.938"
         style="fill:#254c7d;fill-opacity:1;fill-rule:nonzero;stroke:none"
         id="path38" />
      <path
         d="m 797.891,1774.5 v 55.55 h -23.11 v 11.25 h 62.16 v -11.25 h -23.113 v -55.55 h -15.937"
         style="fill:#254c7d;fill-opacity:1;fill-rule:nonzero;stroke:none"
         id="path40" />
      <path
         d="m 867.953,1774.5 v 28.12 l -28.773,38.68 h 18.828 l 18.347,-26.39 18.04,26.39 h 18.257 l -28.765,-38.77 v -28.03 h -15.934"
         style="fill:#254c7d;fill-opacity:1;fill-rule:nonzero;stroke:none"
         id="path42" />
      <path
         d="m 962.156,1807.95 c 0,-7.59 2.047,-13.36 6.145,-17.27 4.097,-3.92 9.304,-5.88 15.609,-5.88 6.305,0 11.488,1.95 15.531,5.84 4.039,3.89 6.069,9.72 6.069,17.49 0,7.68 -1.99,13.41 -5.908,17.2 -3.934,3.78 -9.172,5.67 -15.692,5.67 -6.512,0 -11.769,-1.91 -15.769,-5.75 -3.989,-3.82 -5.985,-9.59 -5.985,-17.3 z m -16.418,-0.45 c 0,6.81 1.196,12.53 3.586,17.16 1.789,3.41 4.227,6.47 7.321,9.18 3.085,2.7 6.472,4.72 10.148,6.03 4.895,1.76 10.543,2.65 16.941,2.65 11.563,0 20.816,-3.07 27.766,-9.19 6.96,-6.11 10.43,-14.62 10.43,-25.51 0,-10.82 -3.45,-19.27 -10.35,-25.38 -6.89,-6.1 -16.107,-9.15 -27.639,-9.15 -11.683,0 -20.968,3.03 -27.859,9.1 -6.894,6.08 -10.344,14.45 -10.344,25.11"
         style="fill:#254c7d;fill-opacity:1;fill-rule:nonzero;stroke:none"
         id="path44" />
      <path
         d="m 1034.28,1774.5 v 66.8 h 54.03 v -11.25 h -38.08 v -15.85 h 32.82 v -11.25 h -32.82 v -28.45 h -15.95"
         style="fill:#254c7d;fill-opacity:1;fill-rule:nonzero;stroke:none"
         id="path46" />
      <path
         d="m 1149.48,1774.5 v 55.55 h -23.11 v 11.25 h 62.16 v -11.25 h -23.11 v -55.55 h -15.94"
         style="fill:#254c7d;fill-opacity:1;fill-rule:nonzero;stroke:none"
         id="path48" />
      <path
         d="m 1210.08,1807.95 c 0,-7.59 2.04,-13.36 6.15,-17.27 4.1,-3.92 9.3,-5.88 15.61,-5.88 6.29,0 11.48,1.95 15.52,5.84 4.05,3.89 6.07,9.72 6.07,17.49 0,7.68 -1.96,13.41 -5.91,17.2 -3.94,3.78 -9.16,5.67 -15.68,5.67 -6.53,0 -11.79,-1.91 -15.78,-5.75 -3.98,-3.82 -5.98,-9.59 -5.98,-17.3 z m -16.42,-0.45 c 0,6.81 1.2,12.53 3.6,17.16 1.78,3.41 4.22,6.47 7.3,9.18 3.1,2.7 6.49,4.72 10.15,6.03 4.9,1.76 10.54,2.65 16.93,2.65 11.58,0 20.84,-3.07 27.78,-9.19 6.95,-6.11 10.42,-14.62 10.42,-25.51 0,-10.82 -3.44,-19.27 -10.33,-25.38 -6.9,-6.1 -16.11,-9.15 -27.65,-9.15 -11.67,0 -20.97,3.03 -27.86,9.1 -6.89,6.08 -10.34,14.45 -10.34,25.11"
         style="fill:#254c7d;fill-opacity:1;fill-rule:nonzero;stroke:none"
         id="path50" />
      <path
         d="m 1298.14,1813.11 h 11.68 c 7.57,0 12.29,0.28 14.16,0.82 1.9,0.56 3.37,1.49 4.45,2.83 1.05,1.33 1.59,3.01 1.59,5 0,2.25 -0.7,4.06 -2.11,5.44 -1.4,1.39 -3.39,2.25 -5.94,2.62 -1.27,0.15 -5.12,0.23 -11.51,0.23 h -12.32 v -16.94 z m -15.93,-38.61 v 66.8 h 33.37 c 8.38,0 14.48,-0.61 18.29,-1.81 3.8,-1.19 6.85,-3.33 9.14,-6.39 2.28,-3.06 3.42,-6.57 3.42,-10.51 0,-5.02 -1.72,-9.14 -5.15,-12.41 -3.45,-3.26 -8.59,-5.32 -15.42,-6.17 3.4,-1.69 6.2,-3.56 8.42,-5.6 2.22,-2.04 5.2,-5.66 8.95,-10.86 l 9.58,-13.05 h -18.76 l -11.48,14.62 c -4.09,5.17 -6.89,8.43 -8.4,9.77 -1.5,1.35 -3.1,2.27 -4.79,2.77 -1.68,0.5 -4.36,0.75 -8.01,0.75 h -3.23 v -27.91 h -15.93"
         style="fill:#254c7d;fill-opacity:1;fill-rule:nonzero;stroke:none"
         id="path52" />
      <path
         d="m 1374.69,1807.95 c 0,-7.59 2.04,-13.36 6.13,-17.27 4.11,-3.92 9.31,-5.88 15.62,-5.88 6.29,0 11.48,1.95 15.52,5.84 4.04,3.89 6.08,9.72 6.08,17.49 0,7.68 -1.98,13.41 -5.92,17.2 -3.93,3.78 -9.16,5.67 -15.68,5.67 -6.53,0 -11.78,-1.91 -15.78,-5.75 -3.98,-3.82 -5.97,-9.59 -5.97,-17.3 z m -16.42,-0.45 c 0,6.81 1.2,12.53 3.59,17.16 1.78,3.41 4.21,6.47 7.31,9.18 3.08,2.7 6.47,4.72 10.16,6.03 4.88,1.76 10.52,2.65 16.9,2.65 11.59,0 20.84,-3.07 27.81,-9.19 6.92,-6.11 10.41,-14.62 10.41,-25.51 0,-10.82 -3.45,-19.27 -10.34,-25.38 -6.89,-6.1 -16.11,-9.15 -27.65,-9.15 -11.68,0 -20.96,3.03 -27.84,9.1 -6.91,6.08 -10.35,14.45 -10.35,25.11"
         style="fill:#254c7d;fill-opacity:1;fill-rule:nonzero;stroke:none"
         id="path54" />
      <path
         d="m 1446.8,1774.5 v 66.8 h 15.38 l 32.6,-44.98 v 44.98 h 14.66 v -66.8 h -15.87 l -32.1,44.05 v -44.05 h -14.67"
         style="fill:#254c7d;fill-opacity:1;fill-rule:nonzero;stroke:none"
         id="path56" />
      <path
         d="m 1543.73,1774.5 v 55.55 h -23.1 v 11.25 h 62.17 v -11.25 h -23.12 v -55.55 h -15.95"
         style="fill:#254c7d;fill-opacity:1;fill-rule:nonzero;stroke:none"
         id="path58" />
      <path
         d="m 1604.33,1807.95 c 0,-7.59 2.05,-13.36 6.15,-17.27 4.09,-3.92 9.29,-5.88 15.61,-5.88 6.3,0 11.47,1.95 15.51,5.84 4.05,3.89 6.08,9.72 6.08,17.49 0,7.68 -1.97,13.41 -5.91,17.2 -3.93,3.78 -9.17,5.67 -15.68,5.67 -6.52,0 -11.78,-1.91 -15.78,-5.75 -3.99,-3.82 -5.98,-9.59 -5.98,-17.3 z m -16.42,-0.45 c 0,6.81 1.2,12.53 3.59,17.16 1.79,3.41 4.22,6.47 7.31,9.18 3.09,2.7 6.48,4.72 10.16,6.03 4.87,1.76 10.54,2.65 16.94,2.65 11.55,0 20.81,-3.07 27.77,-9.19 6.95,-6.11 10.42,-14.62 10.42,-25.51 0,-10.82 -3.45,-19.27 -10.34,-25.38 -6.9,-6.1 -16.12,-9.15 -27.65,-9.15 -11.68,0 -20.96,3.03 -27.86,9.1 -6.89,6.08 -10.34,14.45 -10.34,25.11"
         style="fill:#254c7d;fill-opacity:1;fill-rule:nonzero;stroke:none"
         id="path60" />
    </g>
  </g>
</svg>
